<svg xmlns="http://www.w3.org/2000/svg" xmlns:xlink="http://www.w3.org/1999/xlink" width="94" zoomAndPan="magnify" viewBox="0 0 70.5 78.749998" height="105" preserveAspectRatio="xMidYMid meet" version="1.0"><defs><g/><clipPath id="1878293716"><path d="M 0 0.152344 L 70.003906 0.152344 L 70.003906 78.347656 L 0 78.347656 Z M 0 0.152344 " clip-rule="nonzero"/></clipPath><clipPath id="6e10bbd33f"><path d="M 18 6 L 37 6 L 37 32 L 18 32 Z M 18 6 " clip-rule="nonzero"/></clipPath><clipPath id="e77e77fdf1"><path d="M 0 16.363281 L 34.878906 5.628906 L 41.449219 26.984375 L 6.570312 37.714844 Z M 0 16.363281 " clip-rule="nonzero"/></clipPath><clipPath id="d3848cee4d"><path d="M 0 16.363281 L 34.878906 5.628906 L 41.449219 26.984375 L 6.570312 37.714844 Z M 0 16.363281 " clip-rule="nonzero"/></clipPath><clipPath id="93c40efbb7"><path d="M 0 16.363281 L 34.878906 5.628906 L 41.449219 26.984375 L 6.570312 37.714844 Z M 0 16.363281 " clip-rule="nonzero"/></clipPath><clipPath id="e75c3dff6d"><path d="M 2 20 L 21 20 L 21 35 L 2 35 Z M 2 20 " clip-rule="nonzero"/></clipPath><clipPath id="61705de9ac"><path d="M 0 16.363281 L 34.878906 5.628906 L 41.449219 26.984375 L 6.570312 37.714844 Z M 0 16.363281 " clip-rule="nonzero"/></clipPath><clipPath id="b141e8eea2"><path d="M 0 16.363281 L 34.878906 5.628906 L 41.449219 26.984375 L 6.570312 37.714844 Z M 0 16.363281 " clip-rule="nonzero"/></clipPath><clipPath id="c0acf823c0"><path d="M 0 16.363281 L 34.878906 5.628906 L 41.449219 26.984375 L 6.570312 37.714844 Z M 0 16.363281 " clip-rule="nonzero"/></clipPath></defs><g clip-path="url(#1878293716)"><path fill="#ffffff" d="M 0 0.152344 L 70.003906 0.152344 L 70.003906 78.347656 L 0 78.347656 Z M 0 0.152344 " fill-opacity="1" fill-rule="nonzero"/></g><g clip-path="url(#6e10bbd33f)"><g clip-path="url(#e77e77fdf1)"><g clip-path="url(#d3848cee4d)"><g clip-path="url(#93c40efbb7)"><path fill="#39b54a" d="M 22.371094 31.546875 C 21.007812 29.9375 18.71875 26.691406 18.691406 22.484375 C 18.648438 15.582031 24.710938 8.757812 33.863281 6.585938 C 37.425781 13.925781 36.710938 22.050781 32.167969 26.972656 C 29.109375 30.292969 25.171875 31.226562 23.265625 31.53125 C 24.695312 29.515625 26.226562 27.019531 27.605469 24.035156 C 29.738281 19.421875 30.800781 15.171875 31.351562 11.871094 C 30.1875 15.417969 28.683594 19.320312 26.71875 23.441406 C 25.300781 26.417969 23.824219 29.117188 22.371094 31.546875 Z M 22.371094 31.546875 " fill-opacity="1" fill-rule="nonzero"/></g></g></g></g><g clip-path="url(#e75c3dff6d)"><g clip-path="url(#61705de9ac)"><g clip-path="url(#b141e8eea2)"><g clip-path="url(#c0acf823c0)"><path fill="#39b54a" d="M 20.039062 32.480469 C 18.773438 33.34375 16.25 34.738281 13.214844 34.375 C 8.234375 33.777344 3.796875 28.683594 2.957031 21.730469 C 8.53125 19.769531 14.335938 21.035156 17.523438 24.835938 C 19.671875 27.394531 20.035156 30.386719 20.101562 31.820312 C 18.761719 30.582031 17.085938 29.226562 15.039062 27.933594 C 11.886719 25.941406 8.90625 24.773438 6.570312 24.066406 C 9.03125 25.246094 11.726562 26.710938 14.542969 28.535156 C 16.574219 29.855469 18.40625 31.1875 20.039062 32.480469 Z M 20.039062 32.480469 " fill-opacity="1" fill-rule="nonzero"/></g></g></g></g><g fill="#3d3d3d" fill-opacity="1"><g transform="translate(22.141638, 57.407238)"><g><path d="M 22.15625 -0.65625 C 21.59375 -0.65625 21.132812 -0.828125 20.78125 -1.171875 C 20.4375 -1.523438 20.265625 -1.984375 20.265625 -2.546875 L 20.265625 -18.390625 L 9.859375 -18.390625 L 9.859375 -2.546875 C 9.859375 -1.984375 9.679688 -1.523438 9.328125 -1.171875 C 8.984375 -0.828125 8.53125 -0.65625 7.96875 -0.65625 L 4.390625 -0.65625 C 3.816406 -0.65625 3.359375 -0.828125 3.015625 -1.171875 C 2.671875 -1.523438 2.5 -1.984375 2.5 -2.546875 L 2.5 -25.734375 C 2.5 -27.585938 2.796875 -29.285156 3.390625 -30.828125 C 3.992188 -32.367188 4.835938 -33.679688 5.921875 -34.765625 C 7.003906 -35.847656 8.3125 -36.6875 9.84375 -37.28125 C 11.382812 -37.882812 13.082031 -38.1875 14.9375 -38.1875 C 16.882812 -38.1875 18.632812 -37.882812 20.1875 -37.28125 C 21.75 -36.6875 23.078125 -35.847656 24.171875 -34.765625 C 25.273438 -33.679688 26.125 -32.367188 26.71875 -30.828125 C 27.320312 -29.285156 27.625 -27.585938 27.625 -25.734375 L 27.625 -2.546875 C 27.625 -1.984375 27.453125 -1.523438 27.109375 -1.171875 C 26.765625 -0.828125 26.304688 -0.65625 25.734375 -0.65625 Z M 20.265625 -27.34375 C 20.265625 -28.125 20.140625 -28.828125 19.890625 -29.453125 C 19.640625 -30.085938 19.296875 -30.628906 18.859375 -31.078125 C 18.421875 -31.535156 17.878906 -31.882812 17.234375 -32.125 C 16.585938 -32.363281 15.882812 -32.484375 15.125 -32.484375 C 13.5 -32.484375 12.210938 -32.007812 11.265625 -31.0625 C 10.328125 -30.125 9.859375 -28.882812 9.859375 -27.34375 L 9.859375 -23.5625 L 20.265625 -23.5625 Z M 20.265625 -27.34375 "/></g></g></g></svg>