<svg xmlns="http://www.w3.org/2000/svg" xmlns:xlink="http://www.w3.org/1999/xlink" width="249" zoomAndPan="magnify" viewBox="0 0 186.75 78.749999" height="105" preserveAspectRatio="xMidYMid meet" version="1.0"><defs><g/><clipPath id="c5e5827871"><path d="M 0.171875 0 L 186.328125 0 L 186.328125 78.5 L 0.171875 78.5 Z M 0.171875 0 " clip-rule="nonzero"/></clipPath><clipPath id="0490d88ef5"><path d="M 23 1 L 45 1 L 45 32 L 23 32 Z M 23 1 " clip-rule="nonzero"/></clipPath><clipPath id="3eae64515e"><path d="M 0.171875 13.246094 L 43.046875 0.0546875 L 50.960938 25.78125 L 8.085938 38.972656 Z M 0.171875 13.246094 " clip-rule="nonzero"/></clipPath><clipPath id="9779876f67"><path d="M 0.171875 13.246094 L 43.046875 0.0546875 L 50.960938 25.78125 L 8.085938 38.972656 Z M 0.171875 13.246094 " clip-rule="nonzero"/></clipPath><clipPath id="3a251c197f"><path d="M 0.171875 13.246094 L 43.046875 0.0546875 L 50.960938 25.78125 L 8.085938 38.972656 Z M 0.171875 13.246094 " clip-rule="nonzero"/></clipPath><clipPath id="460f009e55"><path d="M 3 18 L 25 18 L 25 35 L 3 35 Z M 3 18 " clip-rule="nonzero"/></clipPath><clipPath id="aa1c4197b5"><path d="M 0.171875 13.246094 L 43.046875 0.0546875 L 50.960938 25.78125 L 8.085938 38.972656 Z M 0.171875 13.246094 " clip-rule="nonzero"/></clipPath><clipPath id="5e34b3159f"><path d="M 0.171875 13.246094 L 43.046875 0.0546875 L 50.960938 25.78125 L 8.085938 38.972656 Z M 0.171875 13.246094 " clip-rule="nonzero"/></clipPath><clipPath id="4059176226"><path d="M 0.171875 13.246094 L 43.046875 0.0546875 L 50.960938 25.78125 L 8.085938 38.972656 Z M 0.171875 13.246094 " clip-rule="nonzero"/></clipPath></defs><g clip-path="url(#c5e5827871)"><path fill="#ffffff" d="M 0.171875 0 L 186.328125 0 L 186.328125 78.5 L 0.171875 78.5 Z M 0.171875 0 " fill-opacity="1" fill-rule="nonzero"/></g><g clip-path="url(#0490d88ef5)"><g clip-path="url(#3eae64515e)"><g clip-path="url(#9779876f67)"><g clip-path="url(#3a251c197f)"><path fill="#39b54a" d="M 27.519531 31.414062 C 25.855469 29.484375 23.070312 25.585938 23.066406 20.507812 C 23.058594 12.179688 30.546875 3.902344 41.792969 1.214844 C 46.113281 10.050781 45.179688 19.859375 39.574219 25.832031 C 35.796875 29.855469 30.960938 31.011719 28.617188 31.390625 C 30.382812 28.949219 32.28125 25.929688 33.996094 22.316406 C 36.644531 16.738281 37.972656 11.601562 38.675781 7.613281 C 37.222656 11.898438 35.351562 16.621094 32.910156 21.609375 C 31.148438 25.207031 29.320312 28.476562 27.519531 31.414062 Z M 27.519531 31.414062 " fill-opacity="1" fill-rule="nonzero"/></g></g></g></g><g clip-path="url(#460f009e55)"><g clip-path="url(#aa1c4197b5)"><g clip-path="url(#5e34b3159f)"><g clip-path="url(#4059176226)"><path fill="#39b54a" d="M 24.652344 32.5625 C 23.089844 33.609375 19.988281 35.308594 16.265625 34.890625 C 10.15625 34.207031 4.742188 28.089844 3.761719 19.707031 C 10.617188 17.300781 17.730469 18.789062 21.617188 23.351562 C 24.234375 26.425781 24.660156 30.03125 24.730469 31.765625 C 23.097656 30.28125 21.046875 28.652344 18.546875 27.109375 C 14.691406 24.726562 11.042969 23.335938 8.179688 22.5 C 11.195312 23.90625 14.492188 25.65625 17.933594 27.839844 C 20.417969 29.414062 22.65625 31.011719 24.652344 32.5625 Z M 24.652344 32.5625 " fill-opacity="1" fill-rule="nonzero"/></g></g></g></g><g fill="#3d3d3d" fill-opacity="1"><g transform="translate(25.458486, 57.560817)"><g><path d="M 24.234375 -0.65625 C 23.890625 -0.65625 23.601562 -0.765625 23.375 -0.984375 C 23.15625 -1.210938 23.046875 -1.5 23.046875 -1.84375 L 23.046875 -19.78125 L 7.1875 -19.78125 L 7.1875 -1.84375 C 7.1875 -1.5 7.078125 -1.210938 6.859375 -0.984375 C 6.640625 -0.765625 6.359375 -0.65625 6.015625 -0.65625 L 3.6875 -0.65625 C 3.34375 -0.65625 3.0625 -0.765625 2.84375 -0.984375 C 2.625 -1.210938 2.515625 -1.5 2.515625 -1.84375 L 2.515625 -25.84375 C 2.515625 -27.707031 2.8125 -29.410156 3.40625 -30.953125 C 4.007812 -32.492188 4.851562 -33.804688 5.9375 -34.890625 C 7.03125 -35.984375 8.347656 -36.828125 9.890625 -37.421875 C 11.429688 -38.023438 13.132812 -38.328125 15 -38.328125 C 16.957031 -38.328125 18.71875 -38.023438 20.28125 -37.421875 C 21.84375 -36.828125 23.175781 -35.984375 24.28125 -34.890625 C 25.382812 -33.804688 26.234375 -32.492188 26.828125 -30.953125 C 27.429688 -29.410156 27.734375 -27.707031 27.734375 -25.84375 L 27.734375 -1.84375 C 27.734375 -1.5 27.625 -1.210938 27.40625 -0.984375 C 27.1875 -0.765625 26.898438 -0.65625 26.546875 -0.65625 Z M 23.046875 -26.6875 C 23.046875 -27.820312 22.863281 -28.863281 22.5 -29.8125 C 22.132812 -30.757812 21.613281 -31.5625 20.9375 -32.21875 C 20.257812 -32.882812 19.457031 -33.40625 18.53125 -33.78125 C 17.601562 -34.164062 16.550781 -34.359375 15.375 -34.359375 C 12.820312 -34.359375 10.816406 -33.65625 9.359375 -32.25 C 7.910156 -30.84375 7.1875 -28.988281 7.1875 -26.6875 L 7.1875 -23.671875 L 23.046875 -23.671875 Z M 23.046875 -26.6875 "/></g></g></g><g fill="#3d3d3d" fill-opacity="1"><g transform="translate(54.656111, 57.560817)"><g><path d="M 18.5 -37.859375 C 19.832031 -37.859375 21.050781 -37.632812 22.15625 -37.1875 C 23.257812 -36.75 24.195312 -36.144531 24.96875 -35.375 C 25.738281 -34.601562 26.34375 -33.664062 26.78125 -32.5625 C 27.226562 -31.457031 27.453125 -30.242188 27.453125 -28.921875 C 27.453125 -27.335938 27.175781 -25.945312 26.625 -24.75 C 26.070312 -23.550781 25.320312 -22.554688 24.375 -21.765625 C 25.851562 -20.785156 27.007812 -19.484375 27.84375 -17.859375 C 28.6875 -16.234375 29.109375 -14.367188 29.109375 -12.265625 C 29.109375 -10.492188 28.832031 -8.894531 28.28125 -7.46875 C 27.726562 -6.050781 26.953125 -4.835938 25.953125 -3.828125 C 24.960938 -2.816406 23.765625 -2.035156 22.359375 -1.484375 C 20.953125 -0.929688 19.398438 -0.65625 17.703125 -0.65625 L 3.6875 -0.65625 C 3.34375 -0.65625 3.0625 -0.765625 2.84375 -0.984375 C 2.625 -1.210938 2.515625 -1.5 2.515625 -1.84375 L 2.515625 -36.671875 C 2.515625 -37.023438 2.625 -37.3125 2.84375 -37.53125 C 3.0625 -37.75 3.34375 -37.859375 3.6875 -37.859375 Z M 17.65625 -23.671875 C 19.195312 -23.671875 20.429688 -24.132812 21.359375 -25.0625 C 22.296875 -25.988281 22.765625 -27.226562 22.765625 -28.78125 C 22.765625 -30.382812 22.296875 -31.648438 21.359375 -32.578125 C 20.429688 -33.515625 19.195312 -33.984375 17.65625 -33.984375 L 7.1875 -33.984375 L 7.1875 -23.671875 Z M 17.1875 -4.546875 C 19.394531 -4.546875 21.148438 -5.242188 22.453125 -6.640625 C 23.765625 -8.046875 24.421875 -9.921875 24.421875 -12.265625 C 24.421875 -14.535156 23.765625 -16.351562 22.453125 -17.71875 C 21.148438 -19.09375 19.394531 -19.78125 17.1875 -19.78125 L 7.1875 -19.78125 L 7.1875 -4.546875 Z M 17.1875 -4.546875 "/></g></g></g><g fill="#3d3d3d" fill-opacity="1"><g transform="translate(84.374278, 57.560817)"><g><path d="M 2.515625 -26.03125 C 2.515625 -27.894531 2.804688 -29.570312 3.390625 -31.0625 C 3.972656 -32.5625 4.804688 -33.851562 5.890625 -34.9375 C 6.984375 -36.03125 8.285156 -36.867188 9.796875 -37.453125 C 11.304688 -38.035156 12.976562 -38.328125 14.8125 -38.328125 C 16.707031 -38.328125 18.4375 -38.035156 20 -37.453125 C 21.5625 -36.867188 22.882812 -36.03125 23.96875 -34.9375 C 25.0625 -33.851562 25.90625 -32.5625 26.5 -31.0625 C 27.101562 -29.570312 27.40625 -27.894531 27.40625 -26.03125 L 27.40625 -12.40625 C 27.40625 -10.570312 27.113281 -8.894531 26.53125 -7.375 C 25.945312 -5.863281 25.109375 -4.5625 24.015625 -3.46875 C 22.929688 -2.382812 21.640625 -1.550781 20.140625 -0.96875 C 18.640625 -0.382812 16.957031 -0.09375 15.09375 -0.09375 C 13.207031 -0.09375 11.484375 -0.382812 9.921875 -0.96875 C 8.359375 -1.550781 7.03125 -2.382812 5.9375 -3.46875 C 4.851562 -4.5625 4.007812 -5.863281 3.40625 -7.375 C 2.8125 -8.894531 2.515625 -10.570312 2.515625 -12.40625 Z M 6.90625 -12.0625 C 6.90625 -10.863281 7.09375 -9.773438 7.46875 -8.796875 C 7.851562 -7.816406 8.390625 -6.972656 9.078125 -6.265625 C 9.773438 -5.554688 10.617188 -5.007812 11.609375 -4.625 C 12.609375 -4.25 13.691406 -4.0625 14.859375 -4.0625 C 16.085938 -4.0625 17.207031 -4.25 18.21875 -4.625 C 19.226562 -5.007812 20.085938 -5.554688 20.796875 -6.265625 C 21.503906 -6.972656 22.046875 -7.816406 22.421875 -8.796875 C 22.804688 -9.773438 23 -10.863281 23 -12.0625 L 23 -26.359375 C 23 -27.523438 22.804688 -28.601562 22.421875 -29.59375 C 22.046875 -30.59375 21.507812 -31.4375 20.8125 -32.125 C 20.125 -32.820312 19.28125 -33.359375 18.28125 -33.734375 C 17.289062 -34.117188 16.210938 -34.3125 15.046875 -34.3125 C 13.816406 -34.3125 12.695312 -34.117188 11.6875 -33.734375 C 10.675781 -33.359375 9.816406 -32.820312 9.109375 -32.125 C 8.398438 -31.4375 7.851562 -30.59375 7.46875 -29.59375 C 7.09375 -28.601562 6.90625 -27.523438 6.90625 -26.359375 Z M 6.90625 -12.0625 "/></g></g></g><g fill="#3d3d3d" fill-opacity="1"><g transform="translate(113.240641, 57.560817)"><g><path d="M 3.6875 -0.65625 C 3.34375 -0.65625 3.0625 -0.765625 2.84375 -0.984375 C 2.625 -1.210938 2.515625 -1.5 2.515625 -1.84375 L 2.515625 -36.671875 C 2.515625 -37.023438 2.625 -37.3125 2.84375 -37.53125 C 3.0625 -37.75 3.34375 -37.859375 3.6875 -37.859375 L 6.015625 -37.859375 C 6.359375 -37.859375 6.640625 -37.75 6.859375 -37.53125 C 7.078125 -37.3125 7.1875 -37.023438 7.1875 -36.671875 L 7.1875 -23.671875 L 25.84375 -23.671875 L 25.84375 -36.671875 C 25.84375 -37.023438 25.953125 -37.3125 26.171875 -37.53125 C 26.390625 -37.75 26.675781 -37.859375 27.03125 -37.859375 L 29.34375 -37.859375 C 29.6875 -37.859375 29.96875 -37.75 30.1875 -37.53125 C 30.414062 -37.3125 30.53125 -37.023438 30.53125 -36.671875 L 30.53125 -1.84375 C 30.53125 -1.5 30.414062 -1.210938 30.1875 -0.984375 C 29.96875 -0.765625 29.6875 -0.65625 29.34375 -0.65625 L 27.03125 -0.65625 C 26.675781 -0.65625 26.390625 -0.765625 26.171875 -0.984375 C 25.953125 -1.210938 25.84375 -1.5 25.84375 -1.84375 L 25.84375 -19.78125 L 7.1875 -19.78125 L 7.1875 -1.84375 C 7.1875 -1.5 7.078125 -1.210938 6.859375 -0.984375 C 6.640625 -0.765625 6.359375 -0.65625 6.015625 -0.65625 Z M 3.6875 -0.65625 "/></g></g></g><g fill="#3d3d3d" fill-opacity="1"><g transform="translate(145.230287, 57.560817)"><g><path d="M 24.234375 -0.65625 C 23.890625 -0.65625 23.601562 -0.765625 23.375 -0.984375 C 23.15625 -1.210938 23.046875 -1.5 23.046875 -1.84375 L 23.046875 -19.78125 L 7.1875 -19.78125 L 7.1875 -1.84375 C 7.1875 -1.5 7.078125 -1.210938 6.859375 -0.984375 C 6.640625 -0.765625 6.359375 -0.65625 6.015625 -0.65625 L 3.6875 -0.65625 C 3.34375 -0.65625 3.0625 -0.765625 2.84375 -0.984375 C 2.625 -1.210938 2.515625 -1.5 2.515625 -1.84375 L 2.515625 -25.84375 C 2.515625 -27.707031 2.8125 -29.410156 3.40625 -30.953125 C 4.007812 -32.492188 4.851562 -33.804688 5.9375 -34.890625 C 7.03125 -35.984375 8.347656 -36.828125 9.890625 -37.421875 C 11.429688 -38.023438 13.132812 -38.328125 15 -38.328125 C 16.957031 -38.328125 18.71875 -38.023438 20.28125 -37.421875 C 21.84375 -36.828125 23.175781 -35.984375 24.28125 -34.890625 C 25.382812 -33.804688 26.234375 -32.492188 26.828125 -30.953125 C 27.429688 -29.410156 27.734375 -27.707031 27.734375 -25.84375 L 27.734375 -1.84375 C 27.734375 -1.5 27.625 -1.210938 27.40625 -0.984375 C 27.1875 -0.765625 26.898438 -0.65625 26.546875 -0.65625 Z M 23.046875 -26.6875 C 23.046875 -27.820312 22.863281 -28.863281 22.5 -29.8125 C 22.132812 -30.757812 21.613281 -31.5625 20.9375 -32.21875 C 20.257812 -32.882812 19.457031 -33.40625 18.53125 -33.78125 C 17.601562 -34.164062 16.550781 -34.359375 15.375 -34.359375 C 12.820312 -34.359375 10.816406 -33.65625 9.359375 -32.25 C 7.910156 -30.84375 7.1875 -28.988281 7.1875 -26.6875 L 7.1875 -23.671875 L 23.046875 -23.671875 Z M 23.046875 -26.6875 "/></g></g></g></svg>